<svg xmlns="http://www.w3.org/2000/svg" width="30" height="30" viewBox="0 0 400 400"><g fill-rule="evenodd"><path d="M116.794 155.922c-.001 2.007-.357 6.021-.792 8.922-7.12 47.568-10.593 77.091-11.154 94.836l-.231 7.312 1.353 4.492c13.89 46.126 68.845 90.411 102.783 82.827 35.359-7.901 74.023-45.454 85.277-82.827l1.353-4.492-.231-7.312c-.509-16.104-3.476-42.399-9.199-81.538-1.692-11.566-1.969-14.3-1.969-19.434 0-3.285-.106-5.974-.235-5.974-.13 0-1.124.799-2.21 1.776-9.589 8.621-29.524 12.014-73.726 12.548-51.55.623-78.287-3.12-88.383-12.371l-2.633-2.412-.003 3.647m10.538 29.225c12.945 8.784 33.833 12.314 72.863 12.314 43.105 0 65.728-4.542 76.866-15.431 3.333-3.259 3.182-3.706 3.168 9.376-.017 15.891-3.06 38.569-6.646 49.529-1.988 6.077-13.75 28.047-18.314 34.21-.515.696-.709.627-3.98-1.407-14.568-9.062-25.956-13.629-36.689-14.714-3.427-.346-4.098-.306-6.006.359-3.201 1.114-14.324 1.116-17.255.002-1.818-.691-2.417-.731-5.766-.385-11.013 1.138-22.169 5.598-36.862 14.738-3.271 2.034-3.465 2.103-3.98 1.407-4.564-6.163-16.326-28.133-18.314-34.21-4.464-13.644-8.207-49.273-6.362-60.554l.302-1.846 2.407 2.573c1.324 1.415 3.379 3.232 4.568 4.039m38.378 22.319c-3.415.811-5.356 4.162-4.417 7.627 2.111 7.786 15.061 6.255 15.061-1.781 0-4.669-4.708-7.255-10.644-5.846m62.5 0c-3.415.811-5.356 4.162-4.417 7.627 2.111 7.786 15.061 6.255 15.061-1.781 0-4.669-4.708-7.255-10.644-5.846m-111.058 5.992c1.636.846 2.133 2.374 1.538 4.732-.305 1.206-.494 4.882-.506 9.823-.023 8.96-.053 9.056-3.007 9.356-4.739.483-5.999-1.652-5.991-10.152.01-12.241 2.52-16.575 7.966-13.759m168.594-.005c2.725 1.139 3.792 5.105 3.785 14.067-.006 7.286-.903 9.265-4.46 9.843-4.278.694-4.965-.399-4.7-7.48.137-3.635.027-7.377-.297-10.193-.703-6.102 1.142-8.13 5.672-6.237m-86.332 66.351c3.523.022 7.613-.185 9.375-.475 5.06-.831 6.367-.545 7.251 1.59 1.259 3.038-.622 6.143-4.184 6.905-11.467 2.453-26.158 1.024-28.102-2.735-2.157-4.173.669-6.805 6.285-5.854 1.719.291 5.938.547 9.375.569" fill="#5b5b5c"/><path d="M191.992 44.762c-.859.085-3.584.346-6.054.579-54.275 5.117-94.244 44.627-85.616 84.633 2.547 11.811 4.767 15.188 13.35 20.311 10.674 6.371 13.847 6.665 75.586 7.004 79.226.435 86.073-.051 98.329-6.97 7.766-4.384 9.082-5.957 11.388-13.6 12.955-42.946-24.339-84.161-82.569-91.25-4.629-.563-21.063-1.039-24.414-.707m9.754 39.829c2.973 1.411 3.402 5.525.823 7.889l-1.386 1.27h4.604c4.876 0 5.541.219 5.541 1.822 0 1.342-1.135 1.694-5.466 1.694h-3.956l.233 8.691c.35 13.103.426 13.7 1.704 13.386 4.028-.991 9.527-7.775 8.139-10.041-.642-1.049 3.356-4.567 4.633-4.077 1.019.391.65 6.257-.404 6.416-.533.08-1.174.95-2.017 2.734-1.962 4.157-7.352 8.67-10.355 8.672-.36 0-1.176.439-1.815.976-1.447 1.218-2.812 1.242-4.24.075-.607-.497-1.895-1.127-2.862-1.401-4.118-1.168-7.343-4.122-9.505-8.706-.844-1.79-1.486-2.66-2.019-2.741-1.05-.158-1.42-5.918-.405-6.307 1.245-.478 4.698 2.914 4.733 4.651.061 3.043 3.361 7.588 6.623 9.121 2.87 1.349 2.769 1.527 3.058-5.336.143-3.384.372-8.394.508-11.133l.249-4.98h-4.328c-5.191 0-6.307-.599-5.15-2.76.365-.683.857-.756 5.106-.756h4.701l-1.368-1.29c-4.057-3.827-.309-10.209 4.621-7.869m-3.309 2.715c-.722.869-.591 2.596.242 3.206 1.041.761 2.179.473 2.847-.721 1.115-1.992-1.652-4.217-3.089-2.485m-78.269 95.507c-.922 14.15.785 32.631 4.708 50.976 2.156 10.082 6.665 19.65 17.527 37.196 3.19 5.153 2.495 4.904 6.509 2.331 16.677-10.693 35.471-16.893 42.727-14.094 2.799 1.08 13.906 1.077 16.722-.004 7.27-2.79 26.056 3.408 42.727 14.098 4.014 2.573 3.319 2.822 6.509-2.331 10.862-17.546 15.371-27.114 17.527-37.196 3.896-18.22 5.713-37.851 4.703-50.821l-.246-3.164-1.322 1.463c-10.97 12.142-44.158 18.164-90.697 16.457-35.647-1.308-54.083-5.817-64.163-15.693l-2.99-2.929-.241 3.711m53.265 25.107c3.531 1.868 4.262 6.928 1.443 10.003-3.636 3.967-11.709 2.755-13.522-2.03-1.891-4.991 1.34-8.862 7.396-8.862 2.37 0 3.356.187 4.683.889m62.5 0c3.531 1.868 4.262 6.928 1.443 10.003-3.636 3.967-11.709 2.755-13.522-2.03-1.891-4.991 1.34-8.862 7.396-8.862 2.37 0 3.356.187 4.683.889m-123.686 6.114c-3.341 2.037-4.207 18.998-1.118 21.9 2.481 2.331 7.697.95 7.085-1.875-.125-.578-.338-2.633-.474-4.567-.218-3.109-.068-5.261.865-12.372.442-3.368-3.087-5.081-6.358-3.086m168.881.083c-1.312 1.156-1.362 1.606-.696 6.348.371 2.644.47 5.641.314 9.497-.271 6.679-.064 7.148 3.141 7.146 4.309-.003 5.359-1.914 5.364-9.764.005-6.715-.728-11.045-2.134-12.619-1.466-1.64-4.471-1.945-5.989-.608m-122.925 2.875c0 .322-.22.592-.488.599-.269.006-2.334.26-4.59.562-2.511.337-4.243.411-4.466.19-.62-.614 0-.836 3.761-1.348 5.103-.695 5.783-.695 5.783-.003m87.926-.178c4.553.566 5.043.698 5.043 1.358 0 .686.391.687-4.688-.008-2.255-.309-4.321-.567-4.589-.573-.787-.02-.56-1.185.23-1.185.396 0 2.198.184 4.004.408m-86.848 2.414c-.202.606-7.61 2.772-8.418 2.462-.983-.377-.111-.861 3.434-1.907 3.747-1.105 5.222-1.269 4.984-.555m85.853.53c3.708 1.068 4.609 1.55 3.613 1.932-.808.31-8.217-1.856-8.418-2.462-.239-.715.93-.586 4.805.53m-40.025.83c2.212 1.307 2.313 1.978 2.313 15.33 0 15.855.104 15.653-8.067 15.635-7.133-.016-9.121-.992-9.121-4.483 0-2.9 2.132-4.453 6.153-4.483l1.269-.009v-9.394c0-10.178.111-10.808 2.194-12.446 1.28-1.007 3.691-1.076 5.259-.15m-20.373 59.46c-.929.928-1.142 1.475-1.142 2.924 0 4.289 3.448 5.448 16.211 5.448 12.834 0 16.227-1.156 16.198-5.516-.024-3.561-1.377-4.266-6.596-3.436-4.889.777-14.336.792-18.977.03-4.576-.752-4.372-.772-5.694.55" fill="#f5f1e6"/><path d="M36.947 123.339c-.067.068-.522.2-1.009.294-.488.094-.985.268-1.104.387-.119.119.213.138.737.041a16.038 16.038 0 012.027-.204c.59-.016 1.074-.194 1.074-.395 0-.328-1.419-.429-1.725-.123m25 0c-.067.068-.522.2-1.009.294-.488.094-.985.268-1.104.387-.119.119.213.138.737.041a16.038 16.038 0 012.027-.204c.59-.016 1.074-.194 1.074-.395 0-.328-1.419-.429-1.725-.123m25 0c-.067.068-.522.2-1.009.294-.488.094-.985.268-1.104.387-.119.119.213.138.737.041a16.038 16.038 0 012.027-.204c.59-.016 1.074-.194 1.074-.395 0-.328-1.419-.429-1.725-.123m225 0c-.067.068-.522.2-1.009.294-.488.094-.985.268-1.104.387-.119.119.213.138.737.041a16.038 16.038 0 012.027-.204c.59-.016 1.074-.194 1.074-.395 0-.328-1.419-.429-1.725-.123m25 0c-.067.068-.522.2-1.009.294-.488.094-.985.268-1.104.387-.119.119.213.138.737.041a16.038 16.038 0 012.027-.204c.59-.016 1.074-.194 1.074-.395 0-.328-1.419-.429-1.725-.123m25 0c-.067.068-.522.2-1.009.294-.488.094-.985.268-1.104.387-.119.119.213.138.737.041a16.038 16.038 0 012.027-.204c.59-.016 1.074-.194 1.074-.395 0-.328-1.419-.429-1.725-.123m-346.544 1.137c.328.679.82 1.327 1.093 1.441.273.113.057.142-.48.064a37.912 37.912 0 00-1.368-.177c-.214-.019-.148-.188.148-.376.301-.19.409-.551.244-.817-.388-.628-.963.237-.972 1.463-.003.484-.189.879-.413.879-.225 0-.372.22-.327.488.044.269-.29 1.315-.742 2.324-13.729 30.647-16.448 83.038-6.28 121.016 4.484 16.752 15.937 44.492 20.302 49.178.421.452.667.822.547.822-.121 0 .068.44.42.977.352.537.927.979 1.279.982.532.005.545.065.08.36-.459.29-.355.62.584 1.849.629.823 1.105 1.612 1.059 1.753-.046.141.218.198.587.127.37-.071.811-.142.98-.158.17-.017.082-.275-.195-.573-.277-.299-.592-.406-.699-.239-.107.168-.422.06-.699-.238-.426-.459-.096-.547 2.148-.573 1.459-.016 2.916-.095 3.239-.175 2.015-.498 2.734-.549 2.734-.193 0 .219-.396.407-.879.418-1.335.03-4.373.436-4.557.609-.09.084.701.172 1.757.197a74.83 74.83 0 013.162.138c.683.052 1.474-.053 1.758-.234.495-.314-.015-.527-.934-.39-.153.023-.165-.255-.026-.618.159-.414.311-.485.409-.19.209.626 2.433.608 2.441-.02.004-.358.096-.346.343.044.285.45.371.45.55 0 .175-.437.288-.427.628.054.368.52.415.52.426 0 .007-.345.13-.426.299-.196.441.601 5.559.685 5.566.092.004-.314.139-.278.385.104.208.322.381.402.385.178.003-.228.861-.408 1.943-.408 2.657 0 1.906.513-.863.59-.591.017-1.074.209-1.074.428 0 .224.471.309 1.074.195.591-.113 2.568-.302 4.394-.42 3.646-.237 5.114-.399 6.739-.742.618-.131 1.074-.058 1.074.171 0 .219-.396.407-.879.418-1.335.03-4.373.436-4.557.609-.09.084.701.172 1.757.197a74.83 74.83 0 013.162.138c.683.052 1.474-.053 1.758-.234.495-.314-.015-.527-.934-.39-.153.023-.165-.255-.026-.618.159-.414.311-.485.409-.19.209.626 2.433.608 2.441-.02.004-.358.096-.346.343.044.285.45.371.45.55 0 .175-.437.288-.427.628.054.368.52.415.52.426 0 .007-.345.13-.426.299-.196.441.601 5.559.685 5.566.092.004-.314.139-.278.385.104.208.322.381.402.385.178.003-.228.861-.408 1.943-.408 2.657 0 1.906.513-.863.59-.591.017-1.074.209-1.074.428 0 .224.471.309 1.074.195.591-.113 2.568-.302 4.394-.42 3.646-.237 5.114-.399 6.739-.742.618-.131 1.074-.058 1.074.171 0 .219-.396.407-.879.418-1.335.03-4.373.436-4.557.609-.09.084.701.172 1.757.197a74.83 74.83 0 013.162.138c.683.052 1.474-.053 1.758-.234.495-.314-.015-.527-.934-.39-.153.023-.165-.255-.026-.618.159-.414.311-.485.409-.19.209.626 2.433.608 2.441-.02.004-.358.096-.346.343.044.285.45.371.45.55 0 .175-.437.288-.427.628.054.368.52.415.52.426 0 .007-.345.13-.426.299-.196.441.601 5.559.685 5.566.092.004-.314.139-.278.385.104.208.322.381.402.385.178.003-.228.861-.408 1.943-.408 2.657 0 1.906.513-.863.59-.591.017-1.074.209-1.074.428 0 .224.471.309 1.074.195.591-.113 2.568-.302 4.394-.42 3.646-.237 5.114-.399 6.739-.742.618-.131 1.074-.058 1.074.171 0 .219-.396.407-.879.418-1.335.03-4.373.436-4.557.609-.09.084.701.172 1.757.197a74.83 74.83 0 013.162.138c.683.052 1.474-.053 1.758-.234.495-.314-.015-.527-.934-.39-.153.023-.165-.255-.026-.618.159-.414.311-.485.409-.19.209.626 2.433.608 2.441-.02.004-.358.096-.346.343.044.285.45.371.45.55 0 .175-.437.288-.427.628.054.368.52.415.52.426 0 .008-.37.118-.432.299-.169.296.43 2.826.549 2.826.132 0-.128-1.309-2.255-2.909-4.725-5.305-8.192-9.387-16.638-12.397-25.646-3.535-10.582-2.032-31.456 6.558-91.077 3.805-26.415 3.642-25.158 3.657-28.196l.013-2.61-4.18-2.468c-7.581-4.476-11.607-11.457-12.856-22.292-.252-2.183-.292-2.246-1.442-2.246-1.23 0-1.254-.373-.036-.552.384-.056.765-.351.847-.654.116-.432.058-.424-.266.034-.368.521-.416.521-.426 0-.009-.418-.098-.452-.309-.119-.475.746-4.673.941-5.365.249-.448-.448-.578-.462-.582-.06-.005.381-.106.363-.391-.07-.342-.521-.427-.521-.769 0s-.386.521-.397 0c-.007-.345-.13-.425-.299-.196-.158.215-1.957.439-3.998.497-2.041.058-4.282.188-4.98.29-.699.102-1.27.022-1.27-.178 0-.2.484-.438 1.074-.528.591-.091-.034-.09-1.389.002-1.354.091-2.84.239-3.301.327-.462.089-.976-.055-1.144-.319-.226-.355-.309-.328-.318.105-.011.521-.055.521-.397 0s-.427-.521-.769 0-.386.521-.396 0c-.009-.418-.098-.452-.309-.119-.475.746-4.673.941-5.365.249-.448-.448-.578-.462-.582-.06-.005.381-.106.363-.391-.07-.342-.521-.427-.521-.769 0s-.386.521-.397 0c-.007-.345-.13-.425-.299-.196-.158.215-1.957.439-3.998.497-2.041.058-4.282.188-4.98.29-.699.102-1.27.022-1.27-.178 0-.2.484-.438 1.074-.528.591-.091-.034-.09-1.389.002-1.354.091-2.84.239-3.301.327-.462.089-.976-.055-1.144-.319-.226-.355-.309-.328-.318.105-.011.521-.055.521-.397 0s-.427-.521-.769 0-.386.521-.396 0c-.009-.418-.098-.452-.309-.119-.475.746-4.673.941-5.365.249-.448-.448-.578-.462-.582-.06-.005.381-.106.363-.391-.07-.342-.521-.427-.521-.769 0s-.386.521-.397 0c-.007-.345-.13-.425-.299-.196-.158.215-1.957.439-3.998.497-2.041.058-4.282.188-4.98.29-.699.102-1.27.022-1.27-.178 0-.2.484-.438 1.074-.528.591-.091-.034-.09-1.389.002-1.354.091-2.84.239-3.301.327-.462.089-.976-.055-1.144-.319-.226-.355-.309-.328-.318.105-.011.521-.055.521-.397 0s-.427-.521-.769 0-.386.521-.396 0c-.009-.418-.098-.452-.309-.119-.475.746-4.673.941-5.365.249-.448-.448-.578-.462-.582-.06-.005.385-.112.367-.421-.07-.325-.461-.458-.477-.619-.077-.154.382-.346.334-.771-.196-.456-.568-.45-.466.032.53m4.015-.555c-.269.179.011.234.649.128.618-.103 1.209-.273 1.314-.378.316-.316-1.452-.091-1.963.25m25 0c-.269.179.011.234.649.128.618-.103 1.209-.273 1.314-.378.316-.316-1.452-.091-1.963.25m25 0c-.269.179.011.234.649.128.618-.103 1.209-.273 1.314-.378.316-.316-1.452-.091-1.963.25m25 0c-.269.179.011.234.649.128.618-.103 1.209-.273 1.314-.378.316-.316-1.452-.091-1.963.25m225 0c-.269.179.011.234.649.128.618-.103 1.209-.273 1.314-.378.316-.316-1.452-.091-1.963.25m25 0c-.269.179.011.234.649.128.618-.103 1.209-.273 1.314-.378.316-.316-1.452-.091-1.963.25m25 0c-.269.179.011.234.649.128.618-.103 1.209-.273 1.314-.378.316-.316-1.452-.091-1.963.25m15.504.005c.176.573-.056.688-1.438.712-.907.016-2.044.103-2.527.193-.483.09-.879.001-.879-.199s.484-.438 1.074-.528c.591-.091-.034-.09-1.389.002-1.354.091-2.84.239-3.301.327-.462.089-.976-.055-1.144-.319-.226-.355-.309-.328-.318.105-.011.521-.055.521-.397 0s-.427-.521-.769 0-.386.521-.396 0c-.009-.418-.098-.452-.309-.119-.475.746-4.673.941-5.365.249-.448-.448-.578-.462-.582-.06-.005.381-.106.363-.391-.07-.342-.521-.427-.521-.769 0s-.386.521-.397 0c-.007-.345-.13-.425-.299-.196-.158.215-1.957.439-3.998.497-2.041.058-4.282.188-4.98.29-.699.102-1.27.022-1.27-.178 0-.2.484-.438 1.074-.528.591-.091-.034-.09-1.389.002-1.354.091-2.84.239-3.301.327-.462.089-.976-.055-1.144-.319-.226-.355-.309-.328-.318.105-.011.521-.055.521-.397 0s-.427-.521-.769 0-.386.521-.396 0c-.009-.418-.098-.452-.309-.119-.475.746-4.673.941-5.365.249-.448-.448-.578-.462-.582-.06-.005.381-.106.363-.391-.07-.342-.521-.427-.521-.769 0s-.386.521-.397 0c-.007-.345-.13-.425-.299-.196-.158.215-1.957.439-3.998.497-2.041.058-4.282.188-4.98.29-.699.102-1.27.022-1.27-.178 0-.2.484-.438 1.074-.528.591-.091-.034-.09-1.389.002-1.354.091-2.84.239-3.301.327-.462.089-.976-.055-1.144-.319-.226-.355-.309-.328-.318.105-.011.521-.055.521-.397 0s-.427-.521-.769 0-.386.521-.396 0c-.009-.418-.098-.452-.309-.119-.475.746-4.673.941-5.365.249-.448-.448-.578-.462-.582-.06-.005.381-.106.363-.391-.07-.342-.521-.427-.521-.769 0s-.386.521-.397 0c-.007-.345-.13-.425-.299-.196-.158.215-1.957.439-3.998.497-2.041.058-4.282.188-4.98.29-.699.102-1.27.022-1.27-.178 0-.2.484-.438 1.074-.528.591-.091-.068-.087-1.464.009-2.57.175-2.891.275-2.979.92-.027.196-.085.402-.13.455-.044.054-.159.625-.255 1.27-2.126 14.328-4.525 18.694-12.77 23.233l-4.57 2.516v5.154c0 4.329.468 8.429 2.921 25.602 8.478 59.37 10.035 80.473 6.682 90.565-2.973 8.945-6.553 16.51-11.726 24.776-1.604 2.562-2.826 4.803-2.717 4.98.109.177-.075.322-.41.322-.335 0-.609.171-.609.379s.308.279.684.158c.557-.179.578-.146.116.182-.312.221-.695.322-.852.226-.157-.097-.395.002-.529.22-.32.518 6.838.118 10.054-.562.618-.131 1.074-.058 1.074.171 0 .219-.396.407-.879.418-1.335.03-4.373.436-4.557.609-.09.084.701.172 1.757.197a74.83 74.83 0 013.162.138c.683.052 1.474-.053 1.758-.234.495-.314-.015-.527-.934-.39-.153.023-.165-.255-.026-.618.159-.414.311-.485.409-.19.209.626 2.433.608 2.441-.02.004-.358.096-.346.343.044.285.45.371.45.55 0 .175-.437.288-.427.628.054.368.52.415.52.426 0 .007-.345.13-.426.299-.196.441.601 5.559.685 5.566.092.004-.314.139-.278.385.104.208.322.381.402.385.178.003-.228.861-.408 1.943-.408 2.657 0 1.906.513-.863.59-.591.017-1.074.209-1.074.428 0 .224.471.309 1.074.195.591-.113 2.568-.302 4.394-.42 3.646-.237 5.114-.399 6.739-.742.618-.131 1.074-.058 1.074.171 0 .219-.396.407-.879.418-1.335.03-4.373.436-4.557.609-.09.084.701.172 1.757.197a74.83 74.83 0 013.162.138c.683.052 1.474-.053 1.758-.234.495-.314-.015-.527-.934-.39-.153.023-.165-.255-.026-.618.159-.414.311-.485.409-.19.209.626 2.433.608 2.441-.02.004-.358.096-.346.343.044.285.45.371.45.55 0 .175-.437.288-.427.628.054.368.52.415.52.426 0 .007-.345.13-.426.299-.196.441.601 5.559.685 5.566.092.004-.314.139-.278.385.104.208.322.381.402.385.178.003-.228.861-.408 1.943-.408 2.657 0 1.906.513-.863.59-.591.017-1.074.209-1.074.428 0 .224.471.309 1.074.195.591-.113 2.568-.302 4.394-.42 3.646-.237 5.114-.399 6.739-.742.618-.131 1.074-.058 1.074.171 0 .219-.396.407-.879.418-1.335.03-4.373.436-4.557.609-.09.084.701.172 1.757.197a74.83 74.83 0 013.162.138c.683.052 1.474-.053 1.758-.234.495-.314-.015-.527-.934-.39-.153.023-.165-.255-.026-.618.159-.414.311-.485.409-.19.209.626 2.433.608 2.441-.02.004-.358.096-.346.343.044.285.45.371.45.55 0 .175-.437.288-.427.628.054.368.52.415.52.426 0 .007-.345.13-.426.299-.196.441.601 5.559.685 5.566.092.004-.314.139-.278.385.104.208.322.381.402.385.178.003-.228.861-.408 1.943-.408 2.657 0 1.906.513-.863.59-.591.017-1.074.209-1.074.428 0 .224.471.309 1.074.195.591-.113 2.568-.302 4.394-.42 3.646-.237 5.114-.399 6.739-.742.618-.131 1.074-.058 1.074.171 0 .219-.396.407-.879.418-1.335.03-4.373.436-4.557.609-.09.084.701.172 1.757.197a74.83 74.83 0 013.162.138c.683.052 1.474-.053 1.758-.234.495-.314-.015-.527-.934-.39-.153.023-.165-.255-.026-.618.159-.414.311-.485.409-.19.209.626 2.433.608 2.441-.02.004-.358.096-.346.343.044.285.45.371.45.55 0 .175-.437.288-.427.628.054.297.419.416.443.42.082.005-.411.106-.411.551 0 .3.277.453.654.342.838-.112.184-.313.175-.448-.021-.134-.196-.55-.041-.924.346-.844.87.351.848 1.404-.026.578-.48 2.836-4.214 2.927-4.84.024-.166.385-.668.803-1.116 2.036-2.186 11.035-21.284 14.558-30.898 15.985-43.618 16.178-93.856.525-136.436-.79-2.148-1.542-4.258-1.67-4.687-.271-.902-.837-1.536-1.663-1.86-.456-.179-.434-.234.105-.258.828-.037.838-.32.057-1.593-.33-.537-.505-.669-.389-.293m-352.219 1.268c1.516-.047 1.82-.013.71.08-1.369.115-1.771.268-1.367.519.364.227-.138.272-1.382.125-1.074-.128-2.018-.407-2.098-.619-.08-.213-.297-.148-.482.145-.187.295-.34.34-.344.102-.004-.292-.923-.372-2.838-.247-1.557.102-2.69.037-2.518-.143.42-.439 5.758-.505 6.611-.082.537.266.631.193.459-.358-.19-.608-.166-.616.192-.065.318.489.99.608 3.057.543m25 0c1.516-.047 1.82-.013.71.08-1.369.115-1.771.268-1.367.519.364.227-.138.272-1.382.125-1.074-.128-2.018-.407-2.098-.619-.08-.213-.297-.148-.482.145-.187.295-.34.34-.344.102-.004-.292-.923-.372-2.838-.247-1.557.102-2.69.037-2.518-.143.42-.439 5.758-.505 6.611-.082.537.266.631.193.459-.358-.19-.608-.166-.616.192-.065.318.489.99.608 3.057.543m25 0c1.516-.047 1.82-.013.71.08-1.369.115-1.771.268-1.367.519.364.227-.138.272-1.382.125-1.074-.128-2.018-.407-2.098-.619-.08-.213-.297-.148-.482.145-.187.295-.34.34-.344.102-.004-.292-.923-.372-2.838-.247-1.557.102-2.69.037-2.518-.143.42-.439 5.758-.505 6.611-.082.537.266.631.193.459-.358-.19-.608-.166-.616.192-.065.318.489.99.608 3.057.543m225 0c1.516-.047 1.82-.013.71.08-1.369.115-1.771.268-1.367.519.364.227-.139.272-1.382.123-1.074-.128-2.064-.407-2.199-.619-.16-.251-.296-.247-.39.011-.085.23-.361.162-.661-.164-.533-.58.918-.545 1.872.045.233.143.303-.044.172-.462-.192-.613-.168-.623.188-.076.318.489.99.608 3.057.543m25 0c1.516-.047 1.82-.013.71.08-1.369.115-1.771.268-1.367.519.364.227-.138.272-1.382.125-1.074-.128-2.018-.407-2.098-.619-.08-.213-.297-.148-.482.145-.187.295-.34.34-.344.102-.004-.292-.923-.372-2.838-.247-1.557.102-2.69.037-2.518-.143.42-.439 5.758-.505 6.611-.082.537.266.631.193.459-.358-.19-.608-.166-.616.192-.065.318.489.99.608 3.057.543m25 0c1.516-.047 1.82-.013.71.08-1.369.115-1.771.268-1.367.519.364.227-.138.272-1.382.125-1.074-.128-2.018-.407-2.098-.619-.08-.213-.297-.148-.482.145-.187.295-.34.34-.344.102-.004-.292-.923-.372-2.838-.247-1.557.102-2.69.037-2.518-.143.42-.439 5.758-.505 6.611-.082.537.266.631.193.459-.358-.19-.608-.166-.616.192-.065.318.489.99.608 3.057.543m25 0c1.516-.047 1.82-.013.71.08-1.369.115-1.771.268-1.367.519.364.227-.138.272-1.382.125-1.074-.128-2.018-.407-2.098-.619-.08-.213-.297-.148-.482.145-.187.295-.34.34-.344.102-.004-.292-.923-.372-2.838-.247-1.557.102-2.69.037-2.518-.143.42-.439 5.758-.505 6.611-.082.537.266.631.193.459-.358-.19-.608-.166-.616.192-.065.318.489.99.608 3.057.543m-364.051-.019l1.661.411c.429.107 1.156.278 1.615.378 1.62.356 1.195.566-.686.341-1.048-.126-1.971-.403-2.051-.616-.08-.213-.297-.147-.482.146-.247.39-.339.401-.344.044-.003-.281-.504-.488-1.177-.488-.645 0-1.172-.18-1.172-.399 0-.373.508-.338 2.636.183m20.051-.077c.022.346.092.334.242-.045.179-.449.266-.449.555 0 .231.358.44.397.637.121.192-.27.531-.166.986.302.729.753.544.763-2.06.119a8.645 8.645 0 00-.879-.174c-.162-.017-.293-.206-.293-.421 0-.572.775-.478.812.098m4.949.077l1.661.411c.429.107 1.156.278 1.615.378 1.62.356 1.195.566-.686.341-1.048-.126-1.971-.403-2.051-.616-.08-.213-.297-.147-.482.146-.247.39-.339.401-.344.044-.003-.281-.504-.488-1.177-.488-.645 0-1.172-.18-1.172-.399 0-.373.508-.338 2.636.183m20.051-.077c.022.346.092.334.242-.045.179-.449.266-.449.555 0 .231.358.44.397.637.121.192-.27.531-.166.986.302.729.753.544.763-2.06.119a8.645 8.645 0 00-.879-.174c-.162-.017-.293-.206-.293-.421 0-.572.775-.478.812.098m4.949.077l1.661.411c.429.107 1.156.278 1.615.378 1.62.356 1.195.566-.686.341-1.048-.126-1.971-.403-2.051-.616-.08-.213-.297-.147-.482.146-.247.39-.339.401-.344.044-.003-.281-.504-.488-1.177-.488-.645 0-1.172-.18-1.172-.399 0-.373.508-.338 2.636.183m20.051-.077c.022.346.092.334.242-.045.179-.449.266-.449.555 0 .231.358.44.397.637.121.192-.27.531-.166.986.302.729.753.544.763-2.06.119a8.645 8.645 0 00-.879-.174c-.162-.017-.293-.206-.293-.421 0-.572.775-.478.812.098m4.949.077l1.661.411c.429.107 1.156.278 1.615.378 1.62.356 1.195.566-.686.341-1.048-.126-1.971-.403-2.051-.616-.08-.213-.297-.147-.482.146-.247.39-.339.401-.344.044-.003-.281-.504-.488-1.177-.488-.645 0-1.172-.18-1.172-.399 0-.373.508-.338 2.636.183m220.051-.077c.022.346.092.334.242-.045.179-.449.266-.449.555 0 .231.358.44.397.637.121.192-.27.531-.166.986.302.729.753.544.763-2.06.119a8.645 8.645 0 00-.879-.174c-.162-.017-.293-.206-.293-.421 0-.572.775-.478.812.098m4.949.077l1.661.411c.429.107 1.156.278 1.615.378 1.62.356 1.195.566-.686.341-1.048-.126-1.971-.403-2.051-.616-.08-.213-.297-.147-.482.146-.247.39-.339.401-.344.044-.003-.281-.504-.488-1.177-.488-.645 0-1.172-.18-1.172-.399 0-.373.508-.338 2.636.183m20.051-.077c.022.346.092.334.242-.045.179-.449.266-.449.555 0 .231.358.44.397.637.121.192-.27.531-.166.986.302.729.753.544.763-2.06.119a8.645 8.645 0 00-.879-.174c-.162-.017-.293-.206-.293-.421 0-.572.775-.478.812.098m4.949.077l1.661.411c.429.107 1.156.278 1.615.378 1.62.356 1.195.566-.686.341-1.048-.126-1.971-.403-2.051-.616-.08-.213-.297-.147-.482.146-.247.39-.339.401-.344.044-.003-.281-.504-.488-1.177-.488-.645 0-1.172-.18-1.172-.399 0-.373.508-.338 2.636.183m20.051-.077c.022.346.092.334.242-.045.179-.449.266-.449.555 0 .231.358.44.397.637.121.192-.27.531-.166.986.302.729.753.544.763-2.06.119a8.645 8.645 0 00-.879-.174c-.162-.017-.293-.206-.293-.421 0-.572.775-.478.812.098m4.949.077l1.661.411c.429.107 1.156.278 1.615.378 1.62.356 1.195.566-.686.341-1.048-.126-1.971-.403-2.051-.616-.08-.213-.297-.147-.482.146-.247.39-.339.401-.344.044-.003-.281-.504-.488-1.177-.488-.645 0-1.172-.18-1.172-.399 0-.373.508-.338 2.636.183m-340.976 1.199c.13.13-.265.145-.877.034-.613-.111-1.22-.308-1.35-.438-.13-.13.265-.145.877-.034.613.111 1.22.308 1.35.438m8.945-.323a3.215 3.215 0 01-1.367 0c-.376-.099-.068-.179.684-.179.751 0 1.059.08.683.179m16.055.323c.13.13-.265.145-.877.034-.613-.111-1.22-.308-1.35-.438-.13-.13.265-.145.877-.034.613.111 1.22.308 1.35.438m8.945-.323a3.215 3.215 0 01-1.367 0c-.376-.099-.068-.179.684-.179.751 0 1.059.08.683.179m16.055.323c.13.13-.265.145-.877.034-.613-.111-1.22-.308-1.35-.438-.13-.13.265-.145.877-.034.613.111 1.22.308 1.35.438m8.945-.323a3.215 3.215 0 01-1.367 0c-.376-.099-.068-.179.684-.179.751 0 1.059.08.683.179m225 0a3.215 3.215 0 01-1.367 0c-.376-.099-.068-.179.684-.179.751 0 1.059.08.683.179m16.055.323c.13.13-.265.145-.877.034-.613-.111-1.22-.308-1.35-.438-.13-.13.265-.145.877-.034.613.111 1.22.308 1.35.438m8.945-.323a3.215 3.215 0 01-1.367 0c-.376-.099-.068-.179.684-.179.751 0 1.059.08.683.179m16.055.323c.13.13-.265.145-.877.034-.613-.111-1.22-.308-1.35-.438-.13-.13.265-.145.877-.034.613.111 1.22.308 1.35.438m8.945-.323a3.215 3.215 0 01-1.367 0c-.376-.099-.068-.179.684-.179.751 0 1.059.08.683.179m16.055.323c.13.13-.265.145-.877.034-.613-.111-1.22-.308-1.35-.438-.13-.13.265-.145.877-.034.613.111 1.22.308 1.35.438M49.506 303.749c-.105.105-.696.276-1.314.378-.638.106-.918.051-.649-.128.511-.34 2.279-.565 1.963-.25m25 0c-.105.105-.696.276-1.314.378-.638.106-.918.051-.649-.128.511-.34 2.279-.565 1.963-.25m25 0c-.105.105-.696.276-1.314.378-.638.106-.918.051-.649-.128.511-.34 2.279-.565 1.963-.25m200 0c-.105.105-.696.276-1.314.378-.638.106-.918.051-.649-.128.511-.34 2.279-.565 1.963-.25m25 0c-.105.105-.696.276-1.314.378-.638.106-.918.051-.649-.128.511-.34 2.279-.565 1.963-.25m25 0c-.105.105-.696.276-1.314.378-.638.106-.918.051-.649-.128.511-.34 2.279-.565 1.963-.25m-316.01.817a3.215 3.215 0 01-1.367 0c-.376-.098-.068-.178.684-.178.751 0 1.059.08.683.178m25 0a3.215 3.215 0 01-1.367 0c-.376-.098-.068-.178.684-.178.751 0 1.059.08.683.178m25 0a3.215 3.215 0 01-1.367 0c-.376-.098-.068-.178.684-.178.751 0 1.059.08.683.178m25 0a3.215 3.215 0 01-1.367 0c-.376-.098-.068-.178.684-.178.751 0 1.059.08.683.178m175 0a3.215 3.215 0 01-1.367 0c-.376-.098-.068-.178.684-.178.751 0 1.059.08.683.178m25 0a3.215 3.215 0 01-1.367 0c-.376-.098-.068-.178.684-.178.751 0 1.059.08.683.178m25 0a3.215 3.215 0 01-1.367 0c-.376-.098-.068-.178.684-.178.751 0 1.059.08.683.178m25 0a3.215 3.215 0 01-1.367 0c-.376-.098-.068-.178.684-.178.751 0 1.059.08.683.178m-315.244 1.379c-.729.752-.544.763 2.061.119.322-.08 1.098-.158 1.725-.175 1.284-.033 1.186-.356-.189-.621-.502-.096-1.051.041-1.219.306-.226.355-.309.327-.317-.105-.011-.521-.055-.521-.397 0-.255.388-.484.446-.678.174-.192-.271-.531-.166-.986.302m25 0c-.729.752-.544.763 2.061.119.322-.08 1.098-.158 1.725-.175 1.284-.033 1.186-.356-.189-.621-.502-.096-1.051.041-1.219.306-.226.355-.309.327-.317-.105-.011-.521-.055-.521-.397 0-.255.388-.484.446-.678.174-.192-.271-.531-.166-.986.302m25 0c-.729.752-.544.763 2.061.119.322-.08 1.098-.158 1.725-.175 1.284-.033 1.186-.356-.189-.621-.502-.096-1.051.041-1.219.306-.226.355-.309.327-.317-.105-.011-.521-.055-.521-.397 0-.255.388-.484.446-.678.174-.192-.271-.531-.166-.986.302m25 0c-.729.752-.544.763 2.061.119.322-.08 1.098-.158 1.725-.175 1.284-.033 1.186-.356-.189-.621-.502-.096-1.051.041-1.219.306-.226.355-.309.327-.317-.105-.011-.521-.055-.521-.397 0-.255.388-.484.446-.678.174-.192-.271-.531-.166-.986.302m175 0c-.729.752-.544.763 2.061.119.322-.08 1.098-.158 1.725-.175 1.284-.033 1.186-.356-.189-.621-.502-.096-1.051.041-1.219.306-.226.355-.309.327-.317-.105-.011-.521-.055-.521-.397 0-.255.388-.484.446-.678.174-.192-.271-.531-.166-.986.302m25 0c-.729.752-.544.763 2.061.119.322-.08 1.098-.158 1.725-.175 1.284-.033 1.186-.356-.189-.621-.502-.096-1.051.041-1.219.306-.226.355-.309.327-.317-.105-.011-.521-.055-.521-.397 0-.255.388-.484.446-.678.174-.192-.271-.531-.166-.986.302m25 0c-.729.752-.544.763 2.061.119.322-.08 1.098-.158 1.725-.175 1.284-.033 1.186-.356-.189-.621-.502-.096-1.051.041-1.219.306-.226.355-.309.327-.317-.105-.011-.521-.055-.521-.397 0-.255.388-.484.446-.678.174-.192-.271-.531-.166-.986.302m-287.14.101c-.114.298-.701.617-1.304.708-.604.091-.347.129.57.084 1.938-.095 2.151-.221 1.454-.864-.402-.369-.557-.354-.72.072m25 0c-.114.298-.701.617-1.304.708-.604.091-.347.129.57.084 1.938-.095 2.151-.221 1.454-.864-.402-.369-.557-.354-.72.072m25 0c-.114.298-.701.617-1.304.708-.604.091-.347.129.57.084 1.938-.095 2.151-.221 1.454-.864-.402-.369-.557-.354-.72.072m175 0c-.114.298-.701.617-1.304.708-.604.091-.347.129.57.084 1.938-.095 2.151-.221 1.454-.864-.402-.369-.557-.354-.72.072m25 0c-.114.298-.701.617-1.304.708-.604.091-.347.129.57.084 1.938-.095 2.151-.221 1.454-.864-.402-.369-.557-.354-.72.072m25 0c-.114.298-.701.617-1.304.708-.604.091-.347.129.57.084 1.938-.095 2.151-.221 1.454-.864-.402-.369-.557-.354-.72.072m25 0c-.114.298-.701.617-1.304.708-.604.091-.347.129.57.084 1.938-.095 2.151-.221 1.454-.864-.402-.369-.557-.354-.72.072m-306.893.25l-2.149.241 2.424-.012c1.333-.006 2.649-.151 2.924-.321.535-.33.571-.331-3.199.092m25 0l-2.149.241 2.424-.012c1.333-.006 2.649-.151 2.924-.321.535-.33.571-.331-3.199.092m25 0l-2.149.241 2.424-.012c1.333-.006 2.649-.151 2.924-.321.535-.33.571-.331-3.199.092m200 0l-2.149.241 2.424-.012c1.333-.006 2.649-.151 2.924-.321.535-.33.571-.331-3.199.092m25 0l-2.149.241 2.424-.012c1.333-.006 2.649-.151 2.924-.321.535-.33.571-.331-3.199.092m25 0l-2.149.241 2.424-.012c1.333-.006 2.649-.151 2.924-.321.535-.33.571-.331-3.199.092" fill="#7ee2f1"/><path d="M121.458 303.783c.229.469.417.909.417.977 0 .34-2.578.12-2.826-.241-.181-.263-.291-.201-.299.169-.011.52-.055.52-.397 0-.32-.488-.442-.497-.728-.054-.289.45-.376.45-.555 0-.15-.378-.22-.391-.242-.044-.04.626-2.258.644-2.466.02-.098-.295-.25-.224-.409.19-.139.363-.127.641.026.618.919-.137 1.429.076.934.39-.284.181-1.075.286-1.758.234a74.83 74.83 0 00-3.162-.138c-1.056-.025-1.847-.113-1.757-.197.184-.173 3.222-.579 4.557-.609.483-.011.879-.199.879-.418 0-.229-.456-.302-1.074-.171-1.625.343-3.093.505-6.739.742-1.826.118-3.803.307-4.394.42-.603.114-1.074.029-1.074-.195 0-.219.483-.411 1.074-.428 2.769-.077 3.52-.59.863-.59-1.082 0-1.94.18-1.943.408-.004.224-.177.144-.385-.178-.246-.382-.381-.418-.385-.104-.007.593-5.125.509-5.566-.092-.169-.23-.292-.149-.299.196-.011.52-.055.52-.397 0-.32-.488-.442-.497-.728-.054-.289.45-.376.45-.555 0-.15-.378-.22-.391-.242-.044-.04.626-2.258.644-2.466.02-.098-.295-.25-.224-.409.19-.139.363-.127.641.026.618.919-.137 1.429.076.934.39-.284.181-1.075.286-1.758.234a74.83 74.83 0 00-3.162-.138c-1.056-.025-1.847-.113-1.757-.197.184-.173 3.222-.579 4.557-.609.483-.011.879-.199.879-.418 0-.229-.456-.302-1.074-.171-1.625.343-3.093.505-6.739.742-1.826.118-3.803.307-4.394.42-.603.114-1.074.029-1.074-.195 0-.219.483-.411 1.074-.428 2.769-.077 3.52-.59.863-.59-1.082 0-1.94.18-1.943.408-.004.224-.177.144-.385-.178-.246-.382-.381-.418-.385-.104-.007.593-5.125.509-5.566-.092-.169-.23-.292-.149-.299.196-.011.52-.055.52-.397 0-.32-.488-.442-.497-.728-.054-.289.45-.376.45-.555 0-.15-.378-.22-.391-.242-.044-.04.626-2.258.644-2.466.02-.098-.295-.25-.224-.409.19-.139.363-.127.641.026.618.919-.137 1.429.076.934.39-.284.181-1.075.286-1.758.234a74.83 74.83 0 00-3.162-.138c-1.056-.025-1.847-.113-1.757-.197.184-.173 3.222-.579 4.557-.609.483-.011.879-.199.879-.418 0-.229-.456-.302-1.074-.171-1.625.343-3.093.505-6.739.742-1.826.118-3.803.307-4.394.42-.603.114-1.074.029-1.074-.195 0-.219.483-.411 1.074-.428 2.769-.077 3.52-.59.863-.59-1.082 0-1.94.18-1.943.408-.004.224-.177.144-.385-.178-.246-.382-.381-.418-.385-.104-.007.593-5.125.509-5.566-.092-.169-.23-.292-.149-.299.196-.011.52-.055.52-.397 0-.32-.488-.442-.497-.728-.054-.289.45-.376.45-.555 0-.15-.378-.22-.391-.242-.044-.04.626-2.258.644-2.466.02-.098-.295-.25-.224-.409.19-.139.363-.127.641.026.618.919-.137 1.429.076.934.39-.284.181-1.075.286-1.758.234a74.83 74.83 0 00-3.162-.138c-1.056-.025-1.847-.113-1.757-.197.184-.173 3.222-.579 4.557-.609.483-.011.879-.199.879-.418 0-.356-.719-.305-2.734.193-.323.08-1.817.173-3.321.206-1.504.033-2.514.149-2.246.258.269.108.488.368.488.578 0 .21-.219.249-.488.087-.268-.162-.001.311.593 1.051.595.74 1.245 1.728 1.444 2.195.2.467 1.161 1.961 2.136 3.32.976 1.359 2.435 3.401 3.244 4.538 1.609 2.263 8.694 11.487 9.063 11.8.127.108 1.276 1.426 2.555 2.93 36.59 43.05 91.761 67.94 150.594 67.94s114.004-24.89 150.594-67.94c1.279-1.504 2.428-2.822 2.555-2.93.372-.316 7.46-9.522 9.075-11.788 4.663-6.542 5.354-7.572 5.354-7.98 0-.247.262-.666.582-.931.32-.266.468-.666.33-.89-.14-.227-.064-.291.173-.144.873.539 1.446-1.646.63-2.403-.443-.411-.544-.411-.549 0-.004.357-.118.333-.391-.082-.32-.488-.442-.497-.728-.054-.289.45-.376.45-.555 0-.15-.378-.22-.391-.242-.044-.04.626-2.258.644-2.466.02-.098-.295-.25-.224-.409.19-.139.363-.127.641.026.618.919-.137 1.429.076.934.39-.284.181-1.075.286-1.758.234a74.83 74.83 0 00-3.162-.138c-1.056-.025-1.847-.113-1.757-.197.184-.173 3.222-.579 4.557-.609.483-.011.879-.199.879-.418 0-.229-.456-.302-1.074-.171-1.625.343-3.093.505-6.739.742-1.826.118-3.803.307-4.394.42-.603.114-1.074.029-1.074-.195 0-.219.483-.411 1.074-.428 2.769-.077 3.52-.59.863-.59-1.082 0-1.94.18-1.943.408-.004.224-.177.144-.385-.178-.246-.382-.381-.418-.385-.104-.007.593-5.125.509-5.566-.092-.169-.23-.292-.149-.299.196-.011.52-.055.52-.397 0-.32-.488-.442-.497-.728-.054-.289.45-.376.45-.555 0-.15-.378-.22-.391-.242-.044-.04.626-2.258.644-2.466.02-.098-.295-.25-.224-.409.19-.139.363-.127.641.026.618.919-.137 1.429.076.934.39-.284.181-1.075.286-1.758.234a74.83 74.83 0 00-3.162-.138c-1.056-.025-1.847-.113-1.757-.197.184-.173 3.222-.579 4.557-.609.483-.011.879-.199.879-.418 0-.229-.456-.302-1.074-.171-1.625.343-3.093.505-6.739.742-1.826.118-3.803.307-4.394.42-.603.114-1.074.029-1.074-.195 0-.219.483-.411 1.074-.428 2.769-.077 3.52-.59.863-.59-1.082 0-1.94.18-1.943.408-.004.224-.177.144-.385-.178-.246-.382-.381-.418-.385-.104-.007.593-5.125.509-5.566-.092-.169-.23-.292-.149-.299.196-.011.52-.055.52-.397 0-.32-.488-.442-.497-.728-.054-.289.45-.376.45-.555 0-.15-.378-.22-.391-.242-.044-.04.626-2.258.644-2.466.02-.098-.295-.25-.224-.409.19-.139.363-.127.641.026.618.919-.137 1.429.076.934.39-.284.181-1.075.286-1.758.234a74.83 74.83 0 00-3.162-.138c-1.056-.025-1.847-.113-1.757-.197.184-.173 3.222-.579 4.557-.609.483-.011.879-.199.879-.418 0-.229-.456-.302-1.074-.171-1.625.343-3.093.505-6.739.742-1.826.118-3.803.307-4.394.42-.603.114-1.074.029-1.074-.195 0-.219.483-.411 1.074-.428 2.769-.077 3.52-.59.863-.59-1.082 0-1.94.18-1.943.408-.004.224-.177.144-.385-.178-.246-.382-.381-.418-.385-.104-.007.593-5.125.509-5.566-.092-.169-.23-.292-.149-.299.196-.011.52-.055.52-.397 0-.32-.488-.442-.497-.728-.054-.289.45-.376.45-.555 0-.15-.378-.22-.391-.242-.044-.04.626-2.258.644-2.466.02-.098-.295-.25-.224-.409.19-.139.363-.127.641.026.618.919-.137 1.429.076.934.39-.284.181-1.075.286-1.758.234a74.83 74.83 0 00-3.162-.138c-1.056-.025-1.847-.113-1.757-.197.184-.173 3.222-.579 4.557-.609.483-.011.879-.199.879-.418 0-.229-.456-.302-1.074-.171-1.673.354-3.137.509-6.934.737-3.399.204-3.548.253-4.492 1.476-21.605 27.983-53.827 48.499-76.172 48.499-21.188 0-54.225-20.355-73.64-45.371l-3.118-4.017-1.758.175c-.966.096-2.245.282-2.841.413-1.043.229-1.058.212-.391-.476.455-.468.794-.573.986-.302.194.272.423.214.678-.174.342-.521.386-.521.397 0 .008.432.091.46.317.105.168-.265.693-.407 1.166-.316 1.062.205 1.072-.095.044-1.352-.682-.834-.738-.852-.382-.123m-73.915.216c-.269.179.011.234.649.128.618-.102 1.209-.273 1.314-.378.316-.315-1.452-.09-1.963.25m25 0c-.269.179.011.234.649.128.618-.102 1.209-.273 1.314-.378.316-.315-1.452-.09-1.963.25m25 0c-.269.179.011.234.649.128.618-.102 1.209-.273 1.314-.378.316-.315-1.452-.09-1.963.25m200 0c-.269.179.011.234.649.128.618-.102 1.209-.273 1.314-.378.316-.315-1.452-.09-1.963.25m25 0c-.269.179.011.234.649.128.618-.102 1.209-.273 1.314-.378.316-.315-1.452-.09-1.963.25m25 0c-.269.179.011.234.649.128.618-.102 1.209-.273 1.314-.378.316-.315-1.452-.09-1.963.25m-315.414.567c.376.098.991.098 1.367 0s.068-.178-.683-.178c-.752 0-1.06.08-.684.178m25 0c.376.098.991.098 1.367 0s.068-.178-.683-.178c-.752 0-1.06.08-.684.178m25 0c.376.098.991.098 1.367 0s.068-.178-.683-.178c-.752 0-1.06.08-.684.178m25 0c.376.098.991.098 1.367 0s.068-.178-.683-.178c-.752 0-1.06.08-.684.178m175 0c.376.098.991.098 1.367 0s.068-.178-.683-.178c-.752 0-1.06.08-.684.178m25 0c.376.098.991.098 1.367 0s.068-.178-.683-.178c-.752 0-1.06.08-.684.178m25 0c.376.098.991.098 1.367 0s.068-.178-.683-.178c-.752 0-1.06.08-.684.178m25 0c.376.098.991.098 1.367 0s.068-.178-.683-.178c-.752 0-1.06.08-.684.178m-312.213.903c.342-.521.386-.521.397 0 .008.432.091.46.317.105.168-.265.717-.402 1.219-.306 1.375.265 1.473.588.189.621-.627.017-1.403.095-1.725.175-2.605.644-2.79.633-2.061-.119.455-.468.794-.573.986-.302.194.272.423.214.678-.174m25 0c.342-.521.386-.521.397 0 .008.432.091.46.317.105.168-.265.717-.402 1.219-.306 1.375.265 1.473.588.189.621-.627.017-1.403.095-1.725.175-2.605.644-2.79.633-2.061-.119.455-.468.794-.573.986-.302.194.272.423.214.678-.174m25 0c.342-.521.386-.521.397 0 .008.432.091.46.317.105.168-.265.717-.402 1.219-.306 1.375.265 1.473.588.189.621-.627.017-1.403.095-1.725.175-2.605.644-2.79.633-2.061-.119.455-.468.794-.573.986-.302.194.272.423.214.678-.174m200 0c.342-.521.386-.521.397 0 .008.432.091.46.317.105.168-.265.717-.402 1.219-.306 1.375.265 1.473.588.189.621-.627.017-1.403.095-1.725.175-2.605.644-2.79.633-2.061-.119.455-.468.794-.573.986-.302.194.272.423.214.678-.174m25 0c.342-.521.386-.521.397 0 .008.432.091.46.317.105.168-.265.717-.402 1.219-.306 1.375.265 1.473.588.189.621-.627.017-1.403.095-1.725.175-2.605.644-2.79.633-2.061-.119.455-.468.794-.573.986-.302.194.272.423.214.678-.174m25 0c.342-.521.386-.521.397 0 .008.432.091.46.317.105.168-.265.717-.402 1.219-.306 1.375.265 1.473.588.189.621-.627.017-1.403.095-1.725.175-2.605.644-2.79.633-2.061-.119.455-.468.794-.573.986-.302.194.272.423.214.678-.174m24.352.635c.037.145-.326.324-.808.397-.835.128-.844.101-.195-.563.62-.635.803-.605 1.003.166m-337.359.609c-.601.376-1.055.007-.802-.653.167-.437.322-.455.721-.086.355.33.379.552.081.739m25.285-.112c-.082.086-.899.192-1.816.237-.917.045-1.174.007-.57-.084.603-.091 1.19-.41 1.304-.708.163-.426.318-.441.72-.072.281.259.444.541.362.627m25 0c-.082.086-.899.192-1.816.237-.917.045-1.174.007-.57-.084.603-.091 1.19-.41 1.304-.708.163-.426.318-.441.72-.072.281.259.444.541.362.627m25 0c-.082.086-.899.192-1.816.237-.917.045-1.174.007-.57-.084.603-.091 1.19-.41 1.304-.708.163-.426.318-.441.72-.072.281.259.444.541.362.627m175 0c-.082.086-.899.192-1.816.237-.917.045-1.174.007-.57-.084.603-.091 1.19-.41 1.304-.708.163-.426.318-.441.72-.072.281.259.444.541.362.627m25 0c-.082.086-.899.192-1.816.237-.917.045-1.174.007-.57-.084.603-.091 1.19-.41 1.304-.708.163-.426.318-.441.72-.072.281.259.444.541.362.627m25 0c-.082.086-.899.192-1.816.237-.917.045-1.174.007-.57-.084.603-.091 1.19-.41 1.304-.708.163-.426.318-.441.72-.072.281.259.444.541.362.627m25 0c-.082.086-.899.192-1.816.237-.917.045-1.174.007-.57-.084.603-.091 1.19-.41 1.304-.708.163-.426.318-.441.72-.072.281.259.444.541.362.627m-304.776-.397c-.275.17-1.591.315-2.924.321l-2.424.012 2.149-.241c3.77-.423 3.734-.422 3.199-.092m25 0c-.275.17-1.591.315-2.924.321l-2.424.012 2.149-.241c3.77-.423 3.734-.422 3.199-.092m25 0c-.275.17-1.591.315-2.924.321l-2.424.012 2.149-.241c3.77-.423 3.734-.422 3.199-.092m200 0c-.275.17-1.591.315-2.924.321l-2.424.012 2.149-.241c3.77-.423 3.734-.422 3.199-.092m25 0c-.275.17-1.591.315-2.924.321l-2.424.012 2.149-.241c3.77-.423 3.734-.422 3.199-.092m25 0c-.275.17-1.591.315-2.924.321l-2.424.012 2.149-.241c3.77-.423 3.734-.422 3.199-.092" fill="#5cccfc"/><path d="M183.984.436C110.704 6.278 46.612 51.888 16.618 119.537c-.948 2.137-1.559 3.988-1.358 4.112.201.124.362.435.359.69-.004.286-.164.239-.416-.12-.321-.459-.357-.395-.163.293.16.57.078.879-.235.879-.838 0-.104.417 1.065.605.919.147.998.105.439-.232-.781-.47-.828-.722-.287-1.545.342-.521.427-.521.769 0 .285.433.386.451.391.07.004-.402.134-.388.582.06.692.692 4.89.497 5.365-.249.211-.333.3-.299.309.119.01.521.054.521.396 0s.427-.521.769 0 .386.521.397 0c.009-.433.092-.46.318-.105.168.264.682.408 1.144.319.461-.088 1.947-.236 3.301-.327 1.355-.092 1.98-.093 1.389-.002-.59.09-1.074.328-1.074.528s.571.28 1.27.178c.698-.102 2.939-.232 4.98-.29 2.041-.058 3.84-.282 3.998-.497.169-.229.292-.149.299.196.011.521.055.521.397 0s.427-.521.769 0c.285.433.386.451.391.07.004-.402.134-.388.582.06.692.692 4.89.497 5.365-.249.211-.333.3-.299.309.119.01.521.054.521.396 0s.427-.521.769 0 .386.521.397 0c.009-.433.092-.46.318-.105.168.264.682.408 1.144.319.461-.088 1.947-.236 3.301-.327 1.355-.092 1.98-.093 1.389-.002-.59.09-1.074.328-1.074.528s.571.28 1.27.178c.698-.102 2.939-.232 4.98-.29 2.041-.058 3.84-.282 3.998-.497.169-.229.292-.149.299.196.011.521.055.521.397 0s.427-.521.769 0c.285.433.386.451.391.07.004-.402.134-.388.582.06.692.692 4.89.497 5.365-.249.211-.333.3-.299.308.119.011.521.055.521.397 0s.427-.521.769 0 .386.521.397 0c.009-.433.092-.46.318-.105.168.264.682.408 1.144.319.461-.088 1.947-.236 3.301-.327 1.355-.092 1.98-.093 1.389-.002-.59.09-1.074.328-1.074.528s.571.28 1.27.178c.698-.102 2.939-.232 4.98-.29 2.041-.058 3.84-.282 3.998-.497.169-.229.292-.149.299.196.011.521.055.521.397 0s.427-.521.769 0c.285.433.386.451.391.07.004-.402.134-.388.582.06.692.692 4.89.497 5.365-.249.211-.333.3-.299.309.119.01.521.058.521.426 0 .324-.458.382-.466.266-.034-.082.303-.463.598-.847.654-1.198.176-1.204.552-.008.551h1.139l.045-6.738c.362-53.837 75.091-89.377 142.143-67.6 36.578 11.88 59.558 38.086 59.725 68.11.038 6.783.087 7.252.77 7.304.692.052.694.029.038-.451-.527-.385-.574-.577-.197-.81.286-.177.636-.08.834.233.282.446.343.438.353-.047.008-.389.109-.439.299-.147.158.241 1.166.544 2.24.672 1.243.149 1.746.104 1.382-.123-.403-.251.001-.4 1.367-.505 1.358-.105 1.003-.166-1.186-.204-6.096-.106-7.5-.645-2.539-.976 1.396-.093 2.055-.095 1.464-.004-.59.09-1.074.328-1.074.528s.571.28 1.27.178c.698-.102 2.939-.232 4.98-.29 2.041-.058 3.84-.282 3.998-.497.169-.229.292-.149.299.196.011.521.055.521.397 0s.427-.521.769 0c.285.433.386.451.391.07.004-.402.134-.388.582.06.692.692 4.89.497 5.365-.249.211-.333.3-.299.309.119.01.521.054.521.396 0s.427-.521.769 0 .386.521.397 0c.009-.433.092-.46.318-.105.168.264.682.408 1.144.319.461-.088 1.947-.236 3.301-.327 1.355-.092 1.98-.093 1.389-.002-.59.09-1.074.328-1.074.528s.571.28 1.27.178c.698-.102 2.939-.232 4.98-.29 2.041-.058 3.84-.282 3.998-.497.169-.229.292-.149.299.196.011.521.055.521.397 0s.427-.521.769 0c.285.433.386.451.391.07.004-.402.134-.388.582.06.692.692 4.89.497 5.365-.249.211-.333.3-.299.309.119.01.521.054.521.396 0s.427-.521.769 0 .386.521.397 0c.009-.433.092-.46.318-.105.168.264.682.408 1.144.319.461-.088 1.947-.236 3.301-.327 1.355-.092 1.98-.093 1.389-.002-.59.09-1.074.328-1.074.528s.571.28 1.27.178c.698-.102 2.939-.232 4.98-.29 2.041-.058 3.84-.282 3.998-.497.169-.229.292-.149.299.196.011.521.055.521.397 0s.427-.521.769 0c.285.433.386.451.391.07.004-.402.134-.388.582.06.692.692 4.89.497 5.365-.249.211-.333.3-.299.309.119.01.521.054.521.396 0s.427-.521.769 0 .386.521.397 0c.009-.433.092-.46.318-.105.168.264.682.408 1.144.319.461-.088 1.947-.236 3.301-.327 1.355-.092 1.98-.093 1.389-.002-.59.09-1.074.328-1.074.528s.396.289.879.199c.483-.09 1.602-.177 2.485-.193 2.018-.036 2.007-.422-.155-5.319C348.91 41.468 268.787-6.325 183.984.436M38.672 123.462c0 .201-.484.379-1.074.395-.591.016-1.503.108-2.027.204-.524.097-.856.078-.737-.041s.616-.293 1.104-.387c.487-.094.942-.226 1.009-.294.306-.306 1.725-.205 1.725.123m25 0c0 .201-.484.379-1.074.395-.591.016-1.503.108-2.027.204-.524.097-.856.078-.737-.041s.616-.293 1.104-.387c.487-.094.942-.226 1.009-.294.306-.306 1.725-.205 1.725.123m25 0c0 .201-.484.379-1.074.395-.591.016-1.503.108-2.027.204-.524.097-.856.078-.737-.041s.616-.293 1.104-.387c.487-.094.942-.226 1.009-.294.306-.306 1.725-.205 1.725.123m225 0c0 .201-.484.379-1.074.395-.591.016-1.503.108-2.027.204-.524.097-.856.078-.737-.041s.616-.293 1.104-.387c.487-.094.942-.226 1.009-.294.306-.306 1.725-.205 1.725.123m25 0c0 .201-.484.379-1.074.395-.591.016-1.503.108-2.027.204-.524.097-.856.078-.737-.041s.616-.293 1.104-.387c.487-.094.942-.226 1.009-.294.306-.306 1.725-.205 1.725.123m25 0c0 .201-.484.379-1.074.395-.591.016-1.503.108-2.027.204-.524.097-.856.078-.737-.041s.616-.293 1.104-.387c.487-.094.942-.226 1.009-.294.306-.306 1.725-.205 1.725.123m-342.291.209c-.105.105-.696.275-1.314.378-.638.106-.918.051-.649-.128.511-.341 2.279-.566 1.963-.25m25 0c-.105.105-.696.275-1.314.378-.638.106-.918.051-.649-.128.511-.341 2.279-.566 1.963-.25m25 0c-.105.105-.696.275-1.314.378-.638.106-.918.051-.649-.128.511-.341 2.279-.566 1.963-.25m25 0c-.105.105-.696.275-1.314.378-.638.106-.918.051-.649-.128.511-.341 2.279-.566 1.963-.25m225 0c-.105.105-.696.275-1.314.378-.638.106-.918.051-.649-.128.511-.341 2.279-.566 1.963-.25m25 0c-.105.105-.696.275-1.314.378-.638.106-.918.051-.649-.128.511-.341 2.279-.566 1.963-.25m25 0c-.105.105-.696.275-1.314.378-.638.106-.918.051-.649-.128.511-.341 2.279-.566 1.963-.25m-341.927 1.045c.172.551.078.624-.459.358-.853-.423-6.191-.357-6.611.082-.172.18.961.245 2.518.143 1.915-.125 2.834-.045 2.838.247.004.238.157.193.344-.102.185-.293.402-.358.482-.145.08.212 1.024.491 2.098.619 1.244.147 1.746.102 1.382-.125-.404-.251-.002-.404 1.367-.519 1.11-.093.806-.127-.71-.08-2.067.065-2.739-.054-3.057-.543-.358-.551-.382-.543-.192.065m25 0c.172.551.078.624-.459.358-.853-.423-6.191-.357-6.611.082-.172.18.961.245 2.518.143 1.915-.125 2.834-.045 2.838.247.004.238.157.193.344-.102.185-.293.402-.358.482-.145.08.212 1.024.491 2.098.619 1.244.147 1.746.102 1.382-.125-.404-.251-.002-.404 1.367-.519 1.11-.093.806-.127-.71-.08-2.067.065-2.739-.054-3.057-.543-.358-.551-.382-.543-.192.065m25 0c.172.551.078.624-.459.358-.853-.423-6.191-.357-6.611.082-.172.18.961.245 2.518.143 1.915-.125 2.834-.045 2.838.247.004.238.157.193.344-.102.185-.293.402-.358.482-.145.08.212 1.024.491 2.098.619 1.244.147 1.746.102 1.382-.125-.404-.251-.002-.404 1.367-.519 1.11-.093.806-.127-.71-.08-2.067.065-2.739-.054-3.057-.543-.358-.551-.382-.543-.192.065m250 0c.172.551.078.624-.459.358-.853-.423-6.191-.357-6.611.082-.172.18.961.245 2.518.143 1.915-.125 2.834-.045 2.838.247.004.238.157.193.344-.102.185-.293.402-.358.482-.145.08.212 1.024.491 2.098.619 1.244.147 1.746.102 1.382-.125-.404-.251-.002-.404 1.367-.519 1.11-.093.806-.127-.71-.08-2.067.065-2.739-.054-3.057-.543-.358-.551-.382-.543-.192.065m25 0c.172.551.078.624-.459.358-.853-.423-6.191-.357-6.611.082-.172.18.961.245 2.518.143 1.915-.125 2.834-.045 2.838.247.004.238.157.193.344-.102.185-.293.402-.358.482-.145.08.212 1.024.491 2.098.619 1.244.147 1.746.102 1.382-.125-.404-.251-.002-.404 1.367-.519 1.11-.093.806-.127-.71-.08-2.067.065-2.739-.054-3.057-.543-.358-.551-.382-.543-.192.065m25 0c.172.551.078.624-.459.358-.853-.423-6.191-.357-6.611.082-.172.18.961.245 2.518.143 1.915-.125 2.834-.045 2.838.247.004.238.157.193.344-.102.185-.293.402-.358.482-.145.08.212 1.024.491 2.098.619 1.244.147 1.746.102 1.382-.125-.404-.251-.002-.404 1.367-.519 1.11-.093.806-.127-.71-.08-2.067.065-2.739-.054-3.057-.543-.358-.551-.382-.543-.192.065m-363.438.276c0 .219.527.399 1.172.399.673 0 1.174.207 1.177.488.005.357.097.346.344-.044.185-.293.402-.359.482-.146.08.213 1.003.49 2.051.616 1.881.225 2.306.015.686-.341-.459-.1-1.186-.271-1.615-.378-3.856-.964-4.297-1.025-4.297-.594m21.875.008c0 .215.131.404.293.421.161.016.556.095.879.174 2.604.644 2.789.634 2.06-.119-.455-.468-.794-.572-.986-.302-.197.276-.406.237-.637-.121-.289-.449-.376-.449-.555 0-.15.379-.22.391-.242.045-.037-.576-.812-.67-.812-.098m3.125-.008c0 .219.527.399 1.172.399.673 0 1.174.207 1.177.488.005.357.097.346.344-.044.185-.293.402-.359.482-.146.08.213 1.003.49 2.051.616 1.881.225 2.306.015.686-.341-.459-.1-1.186-.271-1.615-.378-3.856-.964-4.297-1.025-4.297-.594m21.875.008c0 .215.131.404.293.421.161.016.556.095.879.174 2.604.644 2.789.634 2.06-.119-.455-.468-.794-.572-.986-.302-.197.276-.406.237-.637-.121-.289-.449-.376-.449-.555 0-.15.379-.22.391-.242.045-.037-.576-.812-.67-.812-.098m3.125-.008c0 .219.527.399 1.172.399.673 0 1.174.207 1.177.488.005.357.097.346.344-.044.185-.293.402-.359.482-.146.08.213 1.003.49 2.051.616 1.881.225 2.306.015.686-.341-.459-.1-1.186-.271-1.615-.378-3.856-.964-4.297-1.025-4.297-.594m21.875.008c0 .215.131.404.293.421.161.016.556.095.879.174 2.604.644 2.789.634 2.06-.119-.455-.468-.794-.572-.986-.302-.197.276-.406.237-.637-.121-.289-.449-.376-.449-.555 0-.15.379-.22.391-.242.045-.037-.576-.812-.67-.812-.098m3.125-.008c0 .219.527.399 1.172.399.673 0 1.174.207 1.177.488.005.357.097.346.344-.044.185-.293.402-.359.482-.146.08.213 1.003.49 2.051.616 1.881.225 2.306.015.686-.341-.459-.1-1.186-.271-1.615-.378-3.856-.964-4.297-1.025-4.297-.594m221.875.008c0 .215.131.404.293.421.161.016.556.095.879.174 2.604.644 2.789.634 2.06-.119-.455-.468-.794-.572-.986-.302-.197.276-.406.237-.637-.121-.289-.449-.376-.449-.555 0-.15.379-.22.391-.242.045-.037-.576-.812-.67-.812-.098m3.125-.008c0 .219.527.399 1.172.399.673 0 1.174.207 1.177.488.005.357.097.346.344-.044.185-.293.402-.359.482-.146.08.213 1.003.49 2.051.616 1.881.225 2.306.015.686-.341-.459-.1-1.186-.271-1.615-.378-3.856-.964-4.297-1.025-4.297-.594m21.875.008c0 .215.131.404.293.421.161.016.556.095.879.174 2.604.644 2.789.634 2.06-.119-.455-.468-.794-.572-.986-.302-.197.276-.406.237-.637-.121-.289-.449-.376-.449-.555 0-.15.379-.22.391-.242.045-.037-.576-.812-.67-.812-.098m3.125-.008c0 .219.527.399 1.172.399.673 0 1.174.207 1.177.488.005.357.097.346.344-.044.185-.293.402-.359.482-.146.08.213 1.003.49 2.051.616 1.881.225 2.306.015.686-.341-.459-.1-1.186-.271-1.615-.378-3.856-.964-4.297-1.025-4.297-.594m21.875.008c0 .215.131.404.293.421.161.016.556.095.879.174 2.604.644 2.789.634 2.06-.119-.455-.468-.794-.572-.986-.302-.197.276-.406.237-.637-.121-.289-.449-.376-.449-.555 0-.15.379-.22.391-.242.045-.037-.576-.812-.67-.812-.098m3.125-.008c0 .219.527.399 1.172.399.673 0 1.174.207 1.177.488.005.357.097.346.344-.044.185-.293.402-.359.482-.146.08.213 1.003.49 2.051.616 1.881.225 2.306.015.686-.341-.459-.1-1.186-.271-1.615-.378-3.856-.964-4.297-1.025-4.297-.594m-340.567.978c.13.13.737.327 1.35.438.612.111 1.007.096.877-.034-.13-.13-.737-.327-1.35-.438-.612-.111-1.007-.096-.877.034m9.805.081c.376.098.991.098 1.367 0 .376-.099.068-.179-.683-.179-.752 0-1.06.08-.684.179m15.195-.081c.13.13.737.327 1.35.438.612.111 1.007.096.877-.034-.13-.13-.737-.327-1.35-.438-.612-.111-1.007-.096-.877.034m9.805.081c.376.098.991.098 1.367 0 .376-.099.068-.179-.683-.179-.752 0-1.06.08-.684.179m15.195-.081c.13.13.737.327 1.35.438.612.111 1.007.096.877-.034-.13-.13-.737-.327-1.35-.438-.612-.111-1.007-.096-.877.034m9.805.081c.376.098.991.098 1.367 0 .376-.099.068-.179-.683-.179-.752 0-1.06.08-.684.179m225 0c.376.098.991.098 1.367 0 .376-.099.068-.179-.683-.179-.752 0-1.06.08-.684.179m15.195-.081c.13.13.737.327 1.35.438.612.111 1.007.096.877-.034-.13-.13-.737-.327-1.35-.438-.612-.111-1.007-.096-.877.034m9.805.081c.376.098.991.098 1.367 0 .376-.099.068-.179-.683-.179-.752 0-1.06.08-.684.179m15.195-.081c.13.13.737.327 1.35.438.612.111 1.007.096.877-.034-.13-.13-.737-.327-1.35-.438-.612-.111-1.007-.096-.877.034m9.805.081c.376.098.991.098 1.367 0 .376-.099.068-.179-.683-.179-.752 0-1.06.08-.684.179m15.195-.081c.13.13.737.327 1.35.438.612.111 1.007.096.877-.034-.13-.13-.737-.327-1.35-.438-.612-.111-1.007-.096-.877.034" fill="#a4fbe3"/><path d="M281.421 154.395l-1.148 1.269 1.27-1.147c.698-.631 1.27-1.203 1.27-1.27 0-.302-.323-.036-1.392 1.148m-108.858 12.288c.486.093 1.189.089 1.563-.008.373-.098-.024-.175-.884-.17-.859.004-1.165.084-.679.178m54.297 0c.486.093 1.189.089 1.563-.008.373-.098-.025-.175-.884-.17-.859.004-1.165.084-.679.178m-42.973.4c.913.082 2.407.082 3.32 0 .913-.082.166-.15-1.66-.15-1.826 0-2.573.068-1.66.15m29.297 0c.913.082 2.407.082 3.32 0 .913-.082.166-.15-1.66-.15-1.826 0-2.573.068-1.66.15m-90.137 14.753c.729.752 1.413 1.367 1.52 1.367.108 0-.401-.615-1.129-1.367-.729-.752-1.414-1.367-1.521-1.367-.107 0 .401.615 1.13 1.367m-3.362 9.766c.001 3.007.062 4.186.137 2.619.074-1.567.073-4.028-.001-5.469-.075-1.44-.136-.158-.136 2.85m160.547 0c.001 3.007.062 4.186.137 2.619.074-1.567.073-4.028-.002-5.469-.075-1.44-.135-.158-.135 2.85m-97.513 5.94c.486.093 1.189.09 1.563-.008.373-.098-.024-.174-.884-.17-.859.004-1.165.084-.679.178m33.59-.001a5.567 5.567 0 001.757 0c.484-.093.088-.169-.878-.169-.967 0-1.363.076-.879.169M114.36 213.167c.486.093 1.189.09 1.563-.008.373-.098-.025-.174-.884-.17-.859.004-1.165.084-.679.178m168.55-.007c.376.098.991.098 1.367 0s.069-.179-.683-.179-1.06.081-.684.179m-2.3 14.184c0 2.041.065 2.876.146 1.855.08-1.02.08-2.69 0-3.711-.081-1.02-.146-.185-.146 1.856m8.934.39c0 .752.08 1.06.178.684a3.183 3.183 0 000-1.367c-.098-.376-.178-.069-.178.683m-175.575 9.652c.486.093 1.189.09 1.563-.008.373-.098-.024-.174-.884-.17-.859.004-1.165.084-.679.178m169.136-.001a5.574 5.574 0 001.758 0c.484-.093.088-.169-.879-.169-.966 0-1.362.076-.879.169m-99.803 45.623c.004.859.084 1.165.177.679.094-.486.09-1.189-.007-1.563-.098-.373-.175.024-.17.884m13.28 5.944a8.674 8.674 0 002.148 0c.591-.09.108-.163-1.074-.163-1.181 0-1.665.073-1.074.163m4.297 0a8.674 8.674 0 002.148 0c.591-.09.108-.163-1.074-.163-1.182 0-1.665.073-1.074.163" fill="#969586"/><path d="M198.438 84.259c-3.367 1.225-4.068 5.603-1.313 8.201l1.368 1.29h-4.701c-4.249 0-4.741.073-5.106.756-1.157 2.161-.041 2.76 5.15 2.76h4.328l-.249 4.98c-.136 2.739-.365 7.749-.508 11.133-.289 6.863-.188 6.685-3.058 5.336-3.262-1.533-6.562-6.078-6.623-9.121-.035-1.737-3.488-5.129-4.733-4.651-1.015.389-.645 6.149.405 6.307.533.081 1.175.951 2.019 2.741 2.162 4.584 5.387 7.538 9.505 8.706.967.274 2.255.904 2.862 1.401 1.428 1.167 2.793 1.143 4.24-.075.639-.537 1.455-.976 1.815-.976 3.003-.002 8.393-4.515 10.355-8.672.843-1.784 1.484-2.654 2.017-2.734 1.054-.159 1.423-6.025.404-6.416-1.277-.49-5.275 3.028-4.633 4.077 1.388 2.266-4.111 9.05-8.139 10.041-1.278.314-1.354-.283-1.704-13.386l-.233-8.691h3.956c4.331 0 5.466-.352 5.466-1.694 0-1.603-.665-1.822-5.541-1.822h-4.604l1.386-1.27c3.736-3.424.482-9.899-4.131-8.221m2.995 3.481c.599.916.609 1.129.093 2.051-1.044 1.867-3.577 1.261-3.577-.855 0-2.265 2.272-3.045 3.484-1.196m-83.074 65.784c0 .587 4.084 3.581 6.641 4.868 11.97 6.03 34.182 8.547 75.391 8.546 46.862-.002 70.684-3.454 79.917-11.581 2.03-1.787 2.033-2.094.009-1.249-6.647 2.778-28.082 3.527-91.059 3.181-49.878-.274-60.452-.764-67.965-3.15-1.614-.512-2.934-.789-2.934-.615m73.731 44.42c1.128.079 2.973.079 4.101 0 1.128-.079.205-.143-2.05-.143-2.256 0-3.179.064-2.051.143m12.695-.001c1.021.081 2.691.081 3.711 0 1.021-.08.186-.146-1.855-.146s-2.876.066-1.856.146m-52.365 19.052c-3.761.512-4.381.734-3.761 1.348.223.221 1.955.147 4.466-.19 2.256-.302 4.321-.556 4.59-.562.268-.007.488-.277.488-.599 0-.692-.68-.692-5.783.003m88.986-.003c0 .322.22.592.489.599.268.006 2.334.264 4.589.573 5.079.695 4.688.694 4.688.008 0-.66-.49-.792-5.043-1.358-4.298-.534-4.723-.518-4.723.178m-87.109 2.791c-3.545 1.046-4.417 1.53-3.434 1.907.808.31 8.216-1.856 8.418-2.462.238-.714-1.237-.55-4.984.555m86.032-.555c.201.606 7.61 2.772 8.418 2.462.996-.382.095-.864-3.613-1.932-3.875-1.116-5.044-1.245-4.805-.53m-40.479 1.51c-2.083 1.638-2.194 2.268-2.194 12.446v9.394l-1.269.009c-4.021.03-6.153 1.583-6.153 4.483 0 3.491 1.988 4.467 9.121 4.483 4.799.011 6.555-.544 7.498-2.368.855-1.653.835-24.874-.023-26.682-1.183-2.492-4.871-3.425-6.98-1.765m-82.165 4.653c0 .966.076 1.362.169.879a5.574 5.574 0 000-1.758c-.093-.484-.169-.088-.169.879m-8.567 1.757c.002 1.719.07 2.374.153 1.455.082-.919.081-2.325-.003-3.125-.084-.8-.151-.048-.15 1.67m8.567 2.149c0 .967.076 1.362.169.879a5.574 5.574 0 000-1.758c-.093-.483-.169-.088-.169.879" fill="#c5bc9c"/><path d="M105.169 248.828c0 .752.08 1.06.178.684a3.183 3.183 0 000-1.367c-.098-.376-.178-.069-.178.683m189.453 0c0 .752.08 1.06.179.684a3.215 3.215 0 000-1.367c-.099-.376-.179-.069-.179.683m-189.828 5.86c0 .966.076 1.362.169.878a5.567 5.567 0 000-1.757c-.093-.484-.169-.088-.169.879m190.234 0c0 .966.076 1.362.17.878a5.567 5.567 0 000-1.757c-.094-.484-.17-.088-.17.879m-154.403 70.434c0 .067.571.639 1.27 1.27l1.269 1.147-1.147-1.269c-1.07-1.184-1.392-1.45-1.392-1.148m117.358 1.148l-1.147 1.269 1.269-1.147c.699-.631 1.27-1.203 1.27-1.27 0-.302-.322-.036-1.392 1.148" fill="#84a3a8"/><path d="M199.112 197.938c.694.086 1.924.088 2.735.003.81-.084.243-.155-1.261-.157-1.504-.001-2.167.068-1.474.154" fill="#a4b5af"/></g></svg>
